<svg id="Group_1104" data-name="Group 1104" xmlns="http://www.w3.org/2000/svg" width="24.988" height="24.995" viewBox="0 0 24.988 24.995">
  <path id="Path_1005" data-name="Path 1005" d="M14.5,27.065A12.494,12.494,0,1,0,5.661,23.41,12.464,12.464,0,0,0,14.5,27.065Zm0-23A10.5,10.5,0,1,1,7.075,7.146,10.43,10.43,0,0,1,14.5,4.07Z" transform="translate(-2.005 -2.07)" fill="#ff762f"/>
  <path id="Path_1006" data-name="Path 1006" d="M16.8,20.167A1,1,0,0,0,17.5,18.46l-3.889-3.889L17.5,10.682A1,1,0,0,0,16.09,9.268l-4.6,4.6a1,1,0,0,0,0,1.414l4.6,4.6A1,1,0,0,0,16.8,20.167Z" transform="translate(-2.005 -2.07)" fill="#ff762f"/>
</svg>
