<svg xmlns="http://www.w3.org/2000/svg" width="49" height="49" viewBox="0 0 49 49">
  <g id="Telegram" transform="translate(0 -0.302)">
    <path id="Path_13" data-name="Path 13" d="M4955.929-838.2c-.355.427-.678.878-1.065,1.264q-1.615,1.61-3.275,3.172a3.583,3.583,0,0,1-2.138,1.1c0-.168-.008-.293,0-.416.234-3.046.464-6.093.721-9.137a1.163,1.163,0,0,1,.366-.678q8.652-7.934,17.323-15.846a1.223,1.223,0,0,0,.245-.234c.108-.181.189-.379.281-.57a2.047,2.047,0,0,0-.659-.164,1.618,1.618,0,0,0-.661.278q-10.96,6.892-21.912,13.8a.918.918,0,0,1-.852.11c-3.165-.976-6.334-1.934-9.5-2.9a2.362,2.362,0,0,1-.229-.079c-.41-.173-.822-.367-.9-.864a1.179,1.179,0,0,1,.6-1.193,9.009,9.009,0,0,1,1.591-.811q10.189-3.951,20.39-7.876l16.278-6.281c.211-.081.423-.162.639-.228a1.85,1.85,0,0,1,2.573,1.847,12.5,12.5,0,0,1-.38,2.481q-3.031,14.319-6.092,28.632a5.95,5.95,0,0,1-.529,1.5,1.447,1.447,0,0,1-1.8.786,5.073,5.073,0,0,1-1.569-.714c-2.953-2.152-5.878-4.342-8.812-6.519C4956.422-837.844,4956.279-837.946,4955.929-838.2Z" transform="translate(-4930.154 873.084)" fill="#fff"/>
    <rect id="Rectangle_62" data-name="Rectangle 62" width="49" height="49" transform="translate(0 0.302)" fill="none"/>
  </g>
</svg>
