<svg xmlns="http://www.w3.org/2000/svg" width="49" height="49" viewBox="0 0 49 49">
  <g id="Instagram" transform="translate(0.464 -0.302)">
    <g id="Group_16" data-name="Group 16" transform="translate(3.221 3.712)">
      <g id="Group_15" data-name="Group 15">
        <path id="Path_8" data-name="Path 8" d="M5830.393-850.688a2.358,2.358,0,0,0-2.358,2.358,2.358,2.358,0,0,0,2.358,2.358,2.358,2.358,0,0,0,2.358-2.358A2.358,2.358,0,0,0,5830.393-850.688Z" transform="translate(-5798.145 858.246)" fill="#fff"/>
        <path id="Path_9" data-name="Path 9" d="M5770.7-839.411a9.917,9.917,0,0,0-9.906,9.906,9.918,9.918,0,0,0,9.906,9.906,9.917,9.917,0,0,0,9.906-9.906A9.917,9.917,0,0,0,5770.7-839.411Zm0,16.252a6.352,6.352,0,0,1-6.346-6.346,6.352,6.352,0,0,1,6.346-6.345,6.352,6.352,0,0,1,6.345,6.345A6.352,6.352,0,0,1,5770.7-823.159Z" transform="translate(-5749.476 850.546)" fill="#fff"/>
        <path id="Path_10" data-name="Path 10" d="M5751.558-835.389h-16.8a12.654,12.654,0,0,1-12.64-12.64v-16.8a12.654,12.654,0,0,1,12.64-12.64h16.8a12.655,12.655,0,0,1,12.642,12.64v16.8A12.655,12.655,0,0,1,5751.558-835.389Zm-16.8-38.123a8.69,8.69,0,0,0-8.68,8.681v16.8a8.69,8.69,0,0,0,8.68,8.681h16.8a8.691,8.691,0,0,0,8.682-8.681v-16.8a8.691,8.691,0,0,0-8.682-8.681Z" transform="translate(-5722.116 877.471)" fill="#fff"/>
      </g>
    </g>
    <rect id="Rectangle_65" data-name="Rectangle 65" width="49" height="49" transform="translate(-0.464 0.302)" fill="none"/>
  </g>
</svg>
