<svg xmlns="http://www.w3.org/2000/svg" width="49" height="49" viewBox="0 0 49 49">
  <g id="Discord" transform="translate(0.115 -0.302)">
    <path id="Path_7" data-name="Path 7" d="M5203.259-834.65c-.6.756-1.147,1.484-1.743,2.165a.928.928,0,0,1-.689.265,17.629,17.629,0,0,1-10.016-3.73,12.8,12.8,0,0,1-1.35-1.5,1.43,1.43,0,0,1-.3-1.023,38.343,38.343,0,0,1,1.15-8.432,45.46,45.46,0,0,1,3.047-8.638,7.4,7.4,0,0,1,4.028-3.731,24.569,24.569,0,0,1,7.119-1.808c.707-.075,1.025.216,1.266,1.157-.528.105-1.057.2-1.582.316a22.237,22.237,0,0,0-6.221,2.266c-.593.333-.787.772-.542,1.23a.978.978,0,0,0,1.382.321,24.523,24.523,0,0,1,15.287-2.433,21.523,21.523,0,0,1,7.563,2.455.972.972,0,0,0,1.153-.107.824.824,0,0,0-.236-1.388,25.8,25.8,0,0,0-3.242-1.45c-1.437-.472-2.931-.771-4.4-1.145l-.252-.065c.124-.9.542-1.244,1.375-1.147a26.327,26.327,0,0,1,6.828,1.716,7.775,7.775,0,0,1,4.357,4.189,44.508,44.508,0,0,1,3.875,14.208c.084.846.124,1.7.127,2.55a1.736,1.736,0,0,1-.267.907,9.389,9.389,0,0,1-3.723,3.157,20.379,20.379,0,0,1-7.454,2.129,1.163,1.163,0,0,1-1.133-.51c-.472-.635-.971-1.249-1.5-1.922.436-.125.825-.233,1.211-.347a19.677,19.677,0,0,0,5.044-2.226c.174-.111.345-.228.511-.351a.86.86,0,0,0,.342-1.211.95.95,0,0,0-1.333-.26,21.157,21.157,0,0,1-10.745,3.364,26.394,26.394,0,0,1-10.463-1.255,16.674,16.674,0,0,1-4.19-2.056,1.32,1.32,0,0,0-.757-.187.78.78,0,0,0-.742.638.751.751,0,0,0,.347.884,24.291,24.291,0,0,0,2.719,1.549c1.188.52,2.441.884,3.667,1.313C5202.908-834.748,5203.044-834.713,5203.259-834.65Zm9.7-10.3a3.3,3.3,0,0,0,3.209,3.417,3.314,3.314,0,0,0,3.207-3.386,3.306,3.306,0,0,0-3.2-3.432A3.289,3.289,0,0,0,5212.956-844.954Zm-8.7-3.4a3.314,3.314,0,0,0-3.213,3.419,3.322,3.322,0,0,0,3.2,3.4,3.307,3.307,0,0,0,3.228-3.4A3.3,3.3,0,0,0,5204.252-848.355Z" transform="translate(-5186.039 871.82)" fill="#fff"/>
    <rect id="Rectangle_63" data-name="Rectangle 63" width="49" height="49" transform="translate(-0.115 0.302)" fill="none"/>
  </g>
</svg>
