<svg xmlns="http://www.w3.org/2000/svg" width="56" height="59.206" viewBox="0 0 56 59.206">
  <g id="Logo-with_padding" data-name="Logo-with padding" transform="translate(56 -16)">
    <path id="FFRC-logo" d="M232.978,55.919a22.347,22.347,0,0,0,2.873-3.842A22.1,22.1,0,0,0,238.9,42v-.074c.027-.491.06-.982.1-1.469a56.11,56.11,0,0,1,4.984-19.17.2.2,0,0,0-.289-.246,56.73,56.73,0,0,0-5.35,4.3c-1.086.986-2.14,2.035-3.151,3.113a56.974,56.974,0,0,0-9.125,12.907q-.917,1.78-1.711,3.637h0c-.231-.127-.464-.244-.7-.358a17.5,17.5,0,0,0-7.365-1.733H216.2a1.574,1.574,0,0,1-.2-.011,1.506,1.506,0,0,1-.2.011h-.087a17.5,17.5,0,0,0-7.365,1.733c-.235.113-.469.231-.7.358h0q-.793-1.856-1.711-3.637a56.974,56.974,0,0,0-9.125-12.907c-1.011-1.078-2.064-2.127-3.151-3.113a57,57,0,0,0-5.35-4.3.2.2,0,0,0-.289.246A56.133,56.133,0,0,1,193,40.467c.038.486.071.973.1,1.464V42a22.153,22.153,0,0,0,5.921,13.915.141.141,0,0,1,0-.042c0,.015,0,.031,0,.044l0,0c.054,1.837,3.078,4.306,4.784,4.542a9.314,9.314,0,0,1,4.937,2.193l.013.008a6.948,6.948,0,0,1,.56.509,9.531,9.531,0,0,1,2.113,3.228c0,.013.016.013.016.027a8.018,8.018,0,0,1,.566,2.191,9.551,9.551,0,0,1-8.205-8.156,9.429,9.429,0,0,0-5.47.878,17.246,17.246,0,0,0,1.795,7.083.679.679,0,0,0,.736.353,9.689,9.689,0,0,1,1.677-.144,9.565,9.565,0,0,1,8.627,5.443l-.008.018a3.9,3.9,0,0,0,1.573,4.917l1.373.787a4.612,4.612,0,0,0,3.784,0l1.373-.787a3.9,3.9,0,0,0,1.574-4.917l-.009-.018a9.565,9.565,0,0,1,8.627-5.443,9.665,9.665,0,0,1,1.675.144.682.682,0,0,0,.738-.353,17.279,17.279,0,0,0,1.795-7.083,9.431,9.431,0,0,0-5.47-.878,9.55,9.55,0,0,1-8.207,8.156,8.1,8.1,0,0,1,.568-2.191c0-.013.013-.013.013-.027a9.539,9.539,0,0,1,2.115-3.228,6.95,6.95,0,0,1,.56-.509l.013-.008a9.307,9.307,0,0,1,4.937-2.193c1.706-.236,4.728-2.7,4.784-4.542" transform="translate(-244 -5.01)" fill="#fff"/>
  </g>
</svg>
