<?xml version="1.0" encoding="utf-8"?>
<!-- Generator: Adobe Illustrator 27.8.1, SVG Export Plug-In . SVG Version: 6.00 Build 0)  -->
<svg version="1.1" id="Layer_1" xmlns="http://www.w3.org/2000/svg" xmlns:xlink="http://www.w3.org/1999/xlink" x="0px" y="0px"
	 viewBox="0 0 282 59.2" style="enable-background:new 0 0 282 59.2;" xml:space="preserve">
<style type="text/css">
	.st0{enable-background:new    ;}
	.st1{fill:#FFFFFF;}
</style>
<g id="Group_1146" transform="translate(-213 -8901.814)">
	<g class="st0">
		<path class="st1" d="M291.8,8925h7v2.4h-4.3v4.7h3.4v2.4h-3.4v7.3h-2.6V8925z"/>
		<path class="st1" d="M301.1,8925h7.2v2.4h-4.6v4.4h3.6v2.4h-3.6v5.2h4.6v2.4h-7.2V8925z"/>
		<path class="st1" d="M310.7,8925h3.3l2.6,10.1h0V8925h2.4v16.8h-2.7l-3.2-12.3h0v12.3h-2.4V8925z"/>
		<path class="st1" d="M321.9,8925h3.3l2.6,10.1h0V8925h2.4v16.8h-2.7l-3.2-12.3h0v12.3h-2.4V8925z"/>
		<path class="st1" d="M333.1,8925h7.2v2.4h-4.6v4.4h3.6v2.4h-3.6v5.2h4.6v2.4h-7.2V8925z"/>
		<path class="st1" d="M343.6,8941c-0.7-0.7-1-1.7-1-3v-9c0-1.3,0.3-2.3,1-3c0.7-0.7,1.6-1.1,2.9-1.1c1.3,0,2.2,0.4,2.9,1.1
			c0.7,0.7,1,1.7,1,3v1.8h-2.5v-1.9c0-1-0.4-1.6-1.3-1.6s-1.3,0.5-1.3,1.6v9.4c0,1,0.4,1.5,1.3,1.5s1.3-0.5,1.3-1.5v-2.6h2.5v2.4
			c0,1.3-0.3,2.3-1,3c-0.7,0.7-1.6,1.1-2.9,1.1C345.3,8942.1,344.3,8941.7,343.6,8941z"/>
		<path class="st1" d="M357.8,8925h7v2.4h-4.3v4.7h3.4v2.4h-3.4v7.3h-2.6V8925z"/>
		<path class="st1" d="M367.8,8941c-0.7-0.7-1-1.8-1-3.1v-8.8c0-1.3,0.3-2.4,1-3.1c0.7-0.7,1.7-1.1,3-1.1c1.3,0,2.3,0.4,3,1.1
			c0.7,0.7,1,1.8,1,3.1v8.8c0,1.3-0.3,2.4-1,3.1c-0.7,0.7-1.7,1.1-3,1.1C369.5,8942.1,368.5,8941.7,367.8,8941z M372.2,8938v-9.2
			c0-1.1-0.5-1.7-1.4-1.7c-0.9,0-1.4,0.6-1.4,1.7v9.2c0,1.1,0.5,1.7,1.4,1.7C371.7,8939.7,372.2,8939.1,372.2,8938z"/>
		<path class="st1" d="M379.5,8933.2l-2.9-8.2h2.8l1.8,5.4h0l1.8-5.4h2.5l-2.9,8.2l3,8.6h-2.8l-1.9-5.9h0l-2,5.9h-2.5L379.5,8933.2z
			"/>
		<path class="st1" d="M392.7,8925h3.9c1.4,0,2.4,0.3,3,0.9c0.6,0.6,0.9,1.6,0.9,2.9v1c0,1.7-0.6,2.8-1.7,3.3v0
			c0.6,0.2,1.1,0.6,1.4,1.2c0.3,0.6,0.4,1.4,0.4,2.4v3c0,0.5,0,0.9,0,1.2c0,0.3,0.1,0.6,0.2,0.9h-2.7c-0.1-0.3-0.2-0.5-0.2-0.8
			c0-0.2,0-0.7,0-1.3v-3.1c0-0.8-0.1-1.3-0.4-1.6c-0.2-0.3-0.7-0.5-1.3-0.5h-0.9v7.2h-2.6V8925z M396.3,8932.2
			c0.5,0,0.9-0.1,1.2-0.4s0.4-0.7,0.4-1.4v-1.3c0-0.6-0.1-1-0.3-1.3c-0.2-0.3-0.6-0.4-1-0.4h-1.2v4.8H396.3z"/>
		<path class="st1" d="M405.3,8925h3.6l2.7,16.8H409l-0.5-3.3v0h-3l-0.5,3.3h-2.4L405.3,8925z M408.2,8936.3l-1.2-8.3h0l-1.2,8.3
			H408.2z"/>
		<path class="st1" d="M413.9,8925h7v2.4h-4.3v4.7h3.4v2.4h-3.4v7.3h-2.6V8925z"/>
		<path class="st1" d="M423.1,8925h7v2.4h-4.3v4.7h3.4v2.4h-3.4v7.3h-2.6V8925z"/>
		<path class="st1" d="M432.3,8925h2.6v14.4h4.3v2.4h-7V8925z"/>
		<path class="st1" d="M441.5,8925h7.2v2.4h-4.6v4.4h3.6v2.4h-3.6v5.2h4.6v2.4h-7.2V8925z"/>
		<path class="st1" d="M456.8,8941c-0.7-0.7-1-1.7-1-3v-9c0-1.3,0.3-2.3,1-3s1.6-1.1,2.9-1.1c1.3,0,2.2,0.4,2.9,1.1
			c0.7,0.7,1,1.7,1,3v1.8h-2.5v-1.9c0-1-0.4-1.6-1.3-1.6s-1.3,0.5-1.3,1.6v9.4c0,1,0.4,1.5,1.3,1.5s1.3-0.5,1.3-1.5v-2.6h2.5v2.4
			c0,1.3-0.3,2.3-1,3c-0.7,0.7-1.6,1.1-2.9,1.1C458.5,8942.1,457.5,8941.7,456.8,8941z"/>
		<path class="st1" d="M466.2,8925h2.6v14.4h4.3v2.4h-7V8925z"/>
		<path class="st1" d="M476.3,8941c-0.7-0.7-1-1.8-1-3.1V8925h2.6v13c0,0.6,0.1,1,0.3,1.2s0.6,0.4,1,0.4s0.8-0.1,1-0.4
			c0.2-0.3,0.3-0.7,0.3-1.2v-13h2.5v12.8c0,1.4-0.3,2.4-1,3.1c-0.7,0.7-1.6,1.1-2.9,1.1S476.9,8941.7,476.3,8941z"/>
		<path class="st1" d="M486,8925h4c1.4,0,2.4,0.3,3,0.9s0.9,1.6,0.9,2.9v0.7c0,0.9-0.1,1.6-0.4,2.1c-0.3,0.5-0.7,0.9-1.3,1.2v0
			c1.3,0.4,2,1.6,2,3.5v1.4c0,1.3-0.3,2.3-1,3c-0.7,0.7-1.7,1-3,1H486V8925z M489.6,8931.9c0.5,0,0.9-0.1,1.2-0.4
			c0.3-0.3,0.4-0.7,0.4-1.4v-0.9c0-0.6-0.1-1-0.3-1.3c-0.2-0.3-0.6-0.4-1-0.4h-1.3v4.4H489.6z M490.1,8939.4c0.5,0,0.8-0.1,1-0.4
			c0.2-0.2,0.3-0.7,0.3-1.3v-1.5c0-0.8-0.1-1.3-0.4-1.6c-0.3-0.3-0.7-0.4-1.3-0.4h-1.2v5.2H490.1z"/>
	</g>
	<g id="Logo-with_padding" transform="translate(-15 8871.814)">
		<path id="FFRC-logo" class="st1" d="M273.8,64.9c1.1-1.2,2.1-2.5,2.9-3.8c1.8-3.1,2.9-6.5,3-10.1v-0.1c0-0.5,0.1-1,0.1-1.5
			c0.5-6.6,2.2-13.1,5-19.2c0-0.1,0-0.2-0.1-0.3c-0.1,0-0.1,0-0.2,0c-1.9,1.3-3.7,2.8-5.4,4.3c-1.1,1-2.1,2-3.2,3.1
			c-3.6,3.9-6.7,8.2-9.1,12.9c-0.6,1.2-1.2,2.4-1.7,3.6l0,0c-0.2-0.1-0.5-0.2-0.7-0.4c-2.3-1.1-4.8-1.7-7.4-1.7h-0.1
			c-0.1,0-0.1,0-0.2,0c-0.1,0-0.1,0-0.2,0h-0.1c-2.6,0-5.1,0.6-7.4,1.7c-0.2,0.1-0.5,0.2-0.7,0.4l0,0c-0.5-1.2-1.1-2.4-1.7-3.6
			c-2.4-4.7-5.5-9-9.1-12.9c-1-1.1-2.1-2.1-3.2-3.1c-1.7-1.5-3.5-3-5.4-4.3c-0.1-0.1-0.2,0-0.3,0.1c0,0.1,0,0.1,0,0.2
			c2.8,6,4.5,12.5,5,19.2c0,0.5,0.1,1,0.1,1.5V51c0.3,5.2,2.4,10.1,5.9,13.9c0,0,0,0,0,0c0,0,0,0,0,0l0,0c0.1,1.8,3.1,4.3,4.8,4.5
			c1.8,0.2,3.5,1,4.9,2.2l0,0c0.2,0.2,0.4,0.3,0.6,0.5c0.9,0.9,1.6,2,2.1,3.2c0,0,0,0,0,0c0.3,0.7,0.5,1.4,0.6,2.2
			c-4.3-0.6-7.6-3.9-8.2-8.2c-1.9-0.3-3.8,0-5.5,0.9c0.1,2.5,0.7,4.9,1.8,7.1c0.1,0.3,0.4,0.4,0.7,0.4c0.6-0.1,1.1-0.1,1.7-0.1
			c3.7,0,7,2.1,8.6,5.4l0,0c-0.8,1.8-0.1,3.9,1.6,4.9l1.4,0.8c1.2,0.5,2.6,0.5,3.8,0l1.4-0.8c1.7-1,2.4-3.1,1.6-4.9l0,0
			c1.6-3.3,4.9-5.4,8.6-5.4c0.6,0,1.1,0,1.7,0.1c0.3,0.1,0.6-0.1,0.7-0.4c1.1-2.2,1.7-4.6,1.8-7.1c-1.7-0.8-3.6-1.1-5.5-0.9
			c-0.6,4.3-3.9,7.6-8.2,8.2c0.1-0.8,0.3-1.5,0.6-2.2c0,0,0,0,0,0c0.5-1.2,1.2-2.3,2.1-3.2c0.2-0.2,0.4-0.3,0.6-0.5l0,0
			c1.4-1.2,3.1-2,4.9-2.2C270.8,69.2,273.8,66.8,273.8,64.9"/>
	</g>
</g>
</svg>
