<svg id="Group_830" data-name="Group 830" xmlns="http://www.w3.org/2000/svg" xmlns:xlink="http://www.w3.org/1999/xlink" width="44.824" height="24" viewBox="0 0 44.824 24">
  <defs>
    <clipPath id="clip-path">
      <rect id="Rectangle_218" data-name="Rectangle 218" width="44.824" height="24" fill="#fff"/>
    </clipPath>
  </defs>
  <g id="Group_830-2" data-name="Group 830" clip-path="url(#clip-path)">
    <path id="Path_495" data-name="Path 495" d="M40.827,0H16.35a3.989,3.989,0,0,0-3.676,2.471H6.353a1.059,1.059,0,1,0,0,2.118h5.692L11.11,7.412H1.059a1.059,1.059,0,1,0,0,2.118H10.41l-.934,2.824H6.353a1.059,1.059,0,1,0,0,2.118H8.776l-.934,2.823H2.118a1.059,1.059,0,1,0,0,2.118H7.141l-.083.25V20a4,4,0,0,0,4,4H35.533a4,4,0,0,0,3.977-3.6L44.717,4.662l.107-.324V4a4,4,0,0,0-4-4m-.285,2.118a.682.682,0,0,1,.391,1.241l-14.746,8.1a1.351,1.351,0,0,1-1.55,0l-8.393-8.1a.682.682,0,0,1,.391-1.241ZM14.854,4.961,20.806,10.7,9.235,20.449A1.87,1.87,0,0,1,9.176,20L14.338,4.4a2.8,2.8,0,0,0,.516.564m7.485,7.222.828.8.119.115.136.1a3.469,3.469,0,0,0,3.862.079l.66-.363,8,8.925a1.868,1.868,0,0,1-.413.049H11.056a1.85,1.85,0,0,1-.21-.021Zm15.046,8.085L29.85,11.862l12.1-6.647.1-.055.094-.066a2.778,2.778,0,0,0,.27-.223L37.412,20a1.856,1.856,0,0,1-.027.265" fill="#fff"/>
  </g>
</svg>
