<svg id="tnc-art-logo-3" xmlns="http://www.w3.org/2000/svg" width="164.464" height="54" viewBox="0 0 164.464 54">
  <g id="Group_429" data-name="Group 429" transform="translate(62.213 10.574)">
    <g id="Group_427" data-name="Group 427" transform="translate(17.298 14.937)">
      <path id="Path_272" data-name="Path 272" d="M158.134,55.784V67.59H154.9V51.473h3.234v1.9A3.978,3.978,0,0,1,162.24,50.6a5.131,5.131,0,0,1,4.158,1.848,7.328,7.328,0,0,1,1.591,4.671V67.59h-3.234V57.222a3.341,3.341,0,0,0-1.027-2.413,3.472,3.472,0,0,0-4.825,0A3.422,3.422,0,0,0,158.134,55.784Z" transform="translate(-154.9 -50.138)" fill="#fff"/>
      <path id="Path_273" data-name="Path 273" d="M201.357,61.609l3.234,1.181a18.371,18.371,0,0,1-1.745,2.156,8.929,8.929,0,1,1-12.627-12.627,8.923,8.923,0,0,1,12.627,0,26.116,26.116,0,0,1,1.745,2.156l-3.234,1.181c-.411-.513-.719-.821-.821-.975a5.427,5.427,0,0,0-3.952-1.643,5.512,5.512,0,0,0-3.952,1.643,5.427,5.427,0,0,0-1.643,3.952,5.512,5.512,0,0,0,1.643,3.952,5.577,5.577,0,0,0,7.9,0A7.328,7.328,0,0,0,201.357,61.609Z" transform="translate(-170.815 -49.7)" fill="#fff"/>
    </g>
    <g id="Group_428" data-name="Group 428" transform="translate(55.386 14.937)">
      <path id="Path_274" data-name="Path 274" d="M243.473,52.164V51.035h3.234V67.152h-3.234v-2a7.3,7.3,0,0,1-5.441,2.413,8.929,8.929,0,0,1-6.314-15.245,8.6,8.6,0,0,1,6.314-2.618A7.757,7.757,0,0,1,243.473,52.164Zm0,7.7V57.5a5.274,5.274,0,0,0-1.489-2.772,5.6,5.6,0,0,0-9.548,3.952,5.512,5.512,0,0,0,1.643,3.952,5.577,5.577,0,0,0,7.9,0A5.659,5.659,0,0,0,243.473,59.863Z" transform="translate(-229.1 -49.7)" fill="#fff"/>
      <path id="Path_275" data-name="Path 275" d="M275.834,54.167A5.7,5.7,0,0,1,280.3,51.6v3.388a4.275,4.275,0,0,0-2.823,1.129,5.256,5.256,0,0,0-1.643,3.747v8.264H272.6V52.011h3.234Z" transform="translate(-250.271 -50.625)" fill="#fff"/>
    </g>
    <rect id="Rectangle_151" data-name="Rectangle 151" width="102.251" height="3.439" transform="translate(0 8.162)" fill="#fff"/>
    <rect id="Rectangle_152" data-name="Rectangle 152" width="3.08" height="32.441" transform="translate(8.675)" fill="#fff"/>
    <rect id="Rectangle_153" data-name="Rectangle 153" width="3.08" height="32.441" transform="translate(90.445)" fill="#fff"/>
  </g>
  <g id="Group_430" data-name="Group 430">
    <path id="Path_276" data-name="Path 276" d="M27,54A27,27,0,1,1,54,27,27.033,27.033,0,0,1,27,54ZM27,2.515A24.485,24.485,0,1,0,51.485,27,24.514,24.514,0,0,0,27,2.515Z" fill="#fff"/>
    <rect id="Rectangle_154" data-name="Rectangle 154" width="50.92" height="2.567" transform="translate(1.643 22.534)" fill="#fff"/>
    <path id="Path_277" data-name="Path 277" d="M27.383,53.865a1,1,0,0,1-.359-.051,1.263,1.263,0,0,1-.924-1.232V8.283a1.283,1.283,0,0,1,2.567,0V47.911L51.509,9.053a1.246,1.246,0,0,1,1.437-.565,1.263,1.263,0,0,1,.924,1.232V51.863a1.283,1.283,0,0,1-2.567,0V14.392L28.461,53.249A1.152,1.152,0,0,1,27.383,53.865Z" transform="translate(-12.703 -3.407)" fill="#fff"/>
  </g>
</svg>
